<svg xmlns="http://www.w3.org/2000/svg" viewBox="0 0 512 640" x="0px" y="0px"><path d="M24,376H224v24a8,8,0,0,0,8,8h3.433l-80.839,74.1A8,8,0,1,0,165.406,493.9L256,410.853,346.594,493.9A8,8,0,1,0,357.406,482.1L276.567,408H280a8,8,0,0,0,8-8V376H480a8,8,0,0,0,8-8V24a8,8,0,0,0-8-8H24a8,8,0,0,0-8,8V368A8,8,0,0,0,24,376Zm96-16H72V264h48Zm104,0H176V216h48Zm48,32H240V376h32Zm56-32H280V184h48Zm104,0H384V120h48ZM32,32H472V360H448V112a8,8,0,0,0-8-8H376a8,8,0,0,0-8,8V360H344V176a8,8,0,0,0-8-8H272a8,8,0,0,0-8,8V360H240V208a8,8,0,0,0-8-8H168a8,8,0,0,0-8,8V360H136V256a8,8,0,0,0-8-8H64a8,8,0,0,0-8,8V360H32Z"/><path d="M64.006,224a7.968,7.968,0,0,0,4.7-1.53L154.6,160H224a8,8,0,0,0,4.326-1.271L328,94.653V112a8,8,0,0,0,16,0V72a8,8,0,0,0-8-8H296a8,8,0,0,0,0,16h25.206L221.65,144H152a8.006,8.006,0,0,0-4.706,1.53l-88,64A8,8,0,0,0,64.006,224Z"/><text x="0" y="527" fill="#000000" font-size="5px" font-weight="bold" font-family="'Helvetica Neue', Helvetica, Arial-Unicode, Arial, Sans-serif">Created by iconixar</text><text x="0" y="532" fill="#000000" font-size="5px" font-weight="bold" font-family="'Helvetica Neue', Helvetica, Arial-Unicode, Arial, Sans-serif">from the Noun Project</text></svg>