<svg xmlns="http://www.w3.org/2000/svg" xmlns:xlink="http://www.w3.org/1999/xlink" version="1.1" x="0px" y="0px" viewBox="0 0 100 125" style="enable-background:new 0 0 100 100;" xml:space="preserve"><path d="M73.6,64c0,0.9,0.7,1.6,1.6,1.6c0,0,0,0,0,0c0.9,0,1.6-0.7,1.6-1.6c0-2.4-1.6-6.8-7.4-7.6v-1.8c0-0.9-0.7-1.6-1.6-1.6  c-0.9,0-1.6,0.7-1.6,1.6v1.8c-2.2,0.2-3.9,1-5.2,2.3c-2,2-2.1,4.6-2.1,5.2c0,0.6-0.1,3.3,1.8,5.5c1.3,1.4,3.2,2.3,5.5,2.5v9.4  c-3.9-0.7-4.2-3.7-4.2-4.4c0-0.9-0.8-1.6-1.6-1.6c-0.9,0-1.6,0.7-1.6,1.6c0,2.4,1.6,6.8,7.4,7.6v1.8c0,0.9,0.7,1.6,1.6,1.6  c0.9,0,1.6-0.7,1.6-1.6v-1.8c2.2-0.2,3.9-1,5.2-2.3c2-2,2.1-4.6,2.1-5.2c0-0.6,0.1-3.3-1.8-5.5c-1.3-1.4-3.2-2.3-5.5-2.5v-9.4  C73.3,60.3,73.6,63.3,73.6,64z M66.2,68.8c-1.4-0.2-2.4-0.7-3.1-1.5c-1.2-1.3-1-3.2-1-3.2c0-0.1,0-0.1,0-0.2c0,0,0-1.8,1.2-3.1  c0.7-0.7,1.7-1.1,2.9-1.3V68.8z M72.5,73.6c1.2,1.3,1,3.2,1,3.2c0,0.1,0,0.1,0,0.2c0,0,0,1.8-1.2,3.1c-0.7,0.7-1.7,1.1-2.9,1.3v-9.3  C70.8,72.4,71.8,72.9,72.5,73.6z"/><path d="M67.8,99.1C51.9,99.1,39,86.2,39,70.3s12.9-28.8,28.8-28.8s28.8,12.9,28.8,28.8S83.7,99.1,67.8,99.1z M67.8,45.1  c-13.9,0-25.2,11.3-25.2,25.2c0,13.9,11.3,25.2,25.2,25.2C81.7,95.5,93,84.2,93,70.3C93,56.4,81.7,45.1,67.8,45.1z"/><path d="M42.6,99.1H6.9c-1,0-1.9-0.8-1.9-1.9V2.7c0-1,0.8-1.9,1.9-1.9h59.9c0.5,0,1,0.2,1.3,0.5l17.3,16.9  c0.4,0.4,0.6,0.8,0.6,1.4V37c0,1-0.8,1.9-1.9,1.9c-1,0-1.9-0.8-1.9-1.9V20.5L66,4.6H8.8v90.7h33.8c1,0,1.9,0.8,1.9,1.9  S43.6,99.1,42.6,99.1z"/><path d="M20,33.3h40c1.2,0,2.2-1,2.2-2.2s-1-2.2-2.2-2.2H20c-1.2,0-2.2,1-2.2,2.2S18.8,33.3,20,33.3z"/><path d="M20.2,21.2h40c1.2,0,2.2-1,2.2-2.2c0-1.2-1-2.2-2.2-2.2h-40c-1.2,0-2.2,1-2.2,2.2C18,20.2,19,21.2,20.2,21.2z  "/><path d="M20.2,45.6h23.4c1.2,0,2.2-1,2.2-2.2c0-1.2-1-2.2-2.2-2.2H20.2c-1.2,0-2.2,1-2.2,2.2  C18,44.6,19,45.6,20.2,45.6z"/><path d="M34.7,58.4H20.1c-1.2,0-2.2-1-2.2-2.2c0-1.2,1-2.2,2.2-2.2h14.6c1.2,0,2.2,1,2.2,2.2  C36.9,57.4,35.9,58.4,34.7,58.4z"/><text x="0" y="115" fill="#000000" font-size="5px" font-weight="bold" font-family="'Helvetica Neue', Helvetica, Arial-Unicode, Arial, Sans-serif">Created by Gem Designs</text><text x="0" y="120" fill="#000000" font-size="5px" font-weight="bold" font-family="'Helvetica Neue', Helvetica, Arial-Unicode, Arial, Sans-serif">from the Noun Project</text></svg>