<svg xmlns="http://www.w3.org/2000/svg" viewBox="0 0 64 80" x="0px" y="0px"><title>import, login, save</title><g><path d="M8.815,14.227a1.5,1.5,0,0,1,1.5-1.5h8.658A17.9,17.9,0,0,1,36.85,30.6v4.78l4.87-4.87a1.5,1.5,0,1,1,2.121,2.121l-7.43,7.43a1.494,1.494,0,0,1-.492.326L35.9,40.4a1.454,1.454,0,0,1-1.095,0l-.022-.007a1.5,1.5,0,0,1-.492-.326l-7.429-7.43a1.5,1.5,0,0,1,2.121-2.121l4.87,4.87V30.6A14.894,14.894,0,0,0,18.973,15.727H10.315A1.5,1.5,0,0,1,8.815,14.227Zm44.87-1.5H39.35a1.5,1.5,0,0,0,0,3H52.185V48.273H11.815V24.16a1.5,1.5,0,0,0-3,0V49.773a1.5,1.5,0,0,0,1.5,1.5h43.37a1.5,1.5,0,0,0,1.5-1.5V14.227A1.5,1.5,0,0,0,53.685,12.727Z"/></g><text x="0" y="79" fill="#000000" font-size="5px" font-weight="bold" font-family="'Helvetica Neue', Helvetica, Arial-Unicode, Arial, Sans-serif">Created by The Icon Z</text><text x="0" y="84" fill="#000000" font-size="5px" font-weight="bold" font-family="'Helvetica Neue', Helvetica, Arial-Unicode, Arial, Sans-serif">from the Noun Project</text></svg>