<svg xmlns:dc="http://purl.org/dc/elements/1.1/" xmlns:cc="http://creativecommons.org/ns#" xmlns:rdf="http://www.w3.org/1999/02/22-rdf-syntax-ns#" xmlns:svg="http://www.w3.org/2000/svg" xmlns="http://www.w3.org/2000/svg" xmlns:sodipodi="http://sodipodi.sourceforge.net/DTD/sodipodi-0.dtd" xmlns:inkscape="http://www.inkscape.org/namespaces/inkscape" version="1.1" x="0px" y="0px" viewBox="0 0 100 125"><g transform="translate(0,-952.36218)"><path style="text-indent:0;text-transform:none;direction:ltr;block-progression:tb;baseline-shift:baseline;color:#000000;enable-background:accumulate;" d="m 74.194348,957.36238 c -6.531369,10e-5 -12.387319,3.035 -16.195129,7.762 a 2.1305483,2.1305483 0 1 0 3.32657,2.6554 c 3.03055,-3.7621 7.65021,-6.157 12.868559,-6.1571 9.15087,0 16.54528,7.3654 16.5453,16.5162 0,9.1509 -7.39436,16.5453 -16.5453,16.5453 -4.85161,0 -9.173189,-2.0818 -12.197409,-5.3984 a 2.1305483,2.1305483 0 1 0 -3.15149,2.8597 c 1.48232,1.6256 3.23578,2.9918 5.16494,4.0852 -2.22103,1.6406 -5.30521,1.4647 -7.32429,-0.5544 -2.22797,-2.2279 -2.228,-5.7675 0,-7.9954 2.22788,-2.2279 5.76755,-2.228 7.99544,0 0.58259,0.5825 1.00881,1.2396 1.28394,1.9551 a 2.1305483,2.1305483 0 1 0 3.968529,-1.5174 c -0.48373,-1.258 -1.237899,-2.4345 -2.246889,-3.4433 -1.92805,-1.9281 -4.4601,-2.9181 -7.0033,-2.9181 -2.5432,0 -5.07524,0.99 -7.0033,2.9181 -3.85609,3.8562 -3.85605,10.1504 0,14.0066 3.85615,3.85612 10.15047,3.85622 14.0066,0 0.19794,-0.198 0.37598,-0.4059 0.55443,-0.6128 1.886129,0.5666 3.886149,0.8755 5.952799,0.8754 1.2075,0 2.37854,-0.1216 3.53084,-0.321 l 0,6.01122 -37.584389,37.5844 -30.02665,-29.9975 37.58438,-37.58442 19.20072,0 10.855119,10.8551 -0.0291,3.9394 a 2.1305483,2.1305483 0 1 0 4.26034,0.029 l 0.0291,-4.8732 a 2.1305483,2.1305483 0 0 0 -0.64197,-1.4882 l -12.0807,-12.1098 a 2.1305483,2.1305483 0 0 0 -1.517379,-0.6128 l -20.95154,0 a 2.1305483,2.1305483 0 0 0 -0.20426,0 2.1305483,2.1305483 0 0 0 -1.31312,0.6128 L 5.620359,1010.704 a 2.1305483,2.1305483 0 0 0 0,3.0057 l 33.03224,33.0322 a 2.1305483,2.1305483 0 0 0 3.00558,0 l 39.685379,-39.6854 a 2.1305483,2.1305483 0 0 0 0.64197,-1.5174 l 0,-8.11222 c 7.61663,-3.0961 13.01447,-10.5865 13.01447,-19.2882 -3e-5,-11.4535 -9.35211,-20.7765 -20.80565,-20.7765 z m -30.289269,34.7831 a 2.1305483,2.1305483 0 0 0 -0.26263,0.029 2.1305483,2.1305483 0 0 0 -1.25475,0.6421 l -21.82696,21.82692 a 2.1356218,2.1356218 0 1 0 3.00558,3.0348 l 21.85614,-21.85622 a 2.1305483,2.1305483 0 0 0 -1.51738,-3.6767 z m 2.9764,10.94272 a 2.1305483,2.1305483 0 0 0 -1.28394,0.6418 l -13.68562,13.7149 a 2.1305483,2.1305483 0 1 0 3.00559,3.0056 l 13.7148,-13.7148 a 2.1305483,2.1305483 0 0 0 -1.54657,-3.6475 2.1305483,2.1305483 0 0 0 -0.20426,0 z m 11.11774,3.2097 a 2.1305483,2.1305483 0 0 0 -1.45902,0.6421 l -21.85614,21.8561 a 2.1356266,2.1356266 0 1 0 3.03477,3.0056 l 21.82695,-21.8562 a 2.1305483,2.1305483 0 0 0 -1.54656,-3.6476 z" fill="#000000" fill-opacity="1" stroke="none" marker="none" visibility="visible" display="inline" overflow="visible"/></g><text x="0" y="115" fill="#000000" font-size="5px" font-weight="bold" font-family="'Helvetica Neue', Helvetica, Arial-Unicode, Arial, Sans-serif">Created by artworkbean</text><text x="0" y="120" fill="#000000" font-size="5px" font-weight="bold" font-family="'Helvetica Neue', Helvetica, Arial-Unicode, Arial, Sans-serif">from the Noun Project</text></svg>