<?xml version="1.0" encoding="UTF-8" standalone="no"?>
<svg
   width="585.71997pt"
   height="585.71997pt"
   version="1.1"
   viewBox="0 0 585.71997 585.71997"
   id="svg97"
   sodipodi:docname="icon.svg"
   inkscape:version="1.1.1 (3bf5ae0d25, 2021-09-20)"
   xmlns:inkscape="http://www.inkscape.org/namespaces/inkscape"
   xmlns:sodipodi="http://sodipodi.sourceforge.net/DTD/sodipodi-0.dtd"
   xmlns="http://www.w3.org/2000/svg"
   xmlns:svg="http://www.w3.org/2000/svg">
  <sodipodi:namedview
     id="namedview99"
     pagecolor="#505050"
     bordercolor="#ffffff"
     borderopacity="1"
     inkscape:pageshadow="0"
     inkscape:pageopacity="0"
     inkscape:pagecheckerboard="1"
     inkscape:document-units="pt"
     showgrid="false"
     fit-margin-top="25"
     fit-margin-left="25"
     fit-margin-right="25"
     fit-margin-bottom="25"
     inkscape:zoom="1.3382143"
     inkscape:cx="390.81932"
     inkscape:cy="483.85374"
     inkscape:window-width="3840"
     inkscape:window-height="2066"
     inkscape:window-x="-11"
     inkscape:window-y="-11"
     inkscape:window-maximized="1"
     inkscape:current-layer="svg97" />
  <style>
     @media (prefers-color-scheme: dark) {
     .a { fill: #f0f0f0 }
     }
  </style>
  <path
     class="a" 
     fill="#0f0f0f" 
     d="m 380.35,327.289 h -63.695 v -8.2344 c 0,-2.5391 0.67578,-5.0312 1.9609,-7.2188 l 5.7266,-9.7695 h 56.012 c 7.8828,0 14.277,-6.3906 14.277,-14.277 0,-7.8828 -6.3906,-14.277 -14.277,-14.277 l -39.277,0.004 40.953,-69.871 c 5.5781,-9.5156 -1.2852,-21.496 -12.316,-21.496 h -22.039 c -5.0664,0 -9.7539,2.6836 -12.316,7.0547 l -42.492,72.484 -42.492,-72.484 c -2.5625,-4.3711 -7.25,-7.0547 -12.316,-7.0547 h -22.039 c -11.031,0 -17.895,11.977 -12.316,21.496 l 40.953,69.871 h -39.273 c -7.8828,0 -14.277,6.3906 -14.277,14.277 0,7.8828 6.3906,14.277 14.277,14.277 h 56.012 l 5.7266,9.7695 c 1.2852,2.1875 1.9609,4.6797 1.9609,7.2188 v 8.2344 h -63.695 c -7.8828,0 -14.277,6.3906 -14.277,14.277 0,7.8828 6.3906,14.277 14.277,14.277 h 63.695 v 59.48 c 0,7.8828 6.3906,14.277 14.277,14.277 h 19.035 c 7.8828,0 14.277,-6.3906 14.277,-14.277 v -59.48 h 63.695 c 7.8828,0 14.277,-6.3906 14.277,-14.277 -0.0156,-7.8906 -6.4102,-14.281 -14.293,-14.281 z"
     id="yensymbol" />
  <path
     class="a" 
     fill="#0f0f0f" 
     d="M 292.86,25 C 145.17,25 25,145.17 25,292.86 25,440.55 145.17,560.72 292.86,560.72 440.55,560.72 560.72,440.55 560.72,292.86 560.72,145.17 440.55,25 292.86,25 Z m 0,494.26 c -125.04,0 -226.4,-101.36 -226.4,-226.4 0,-125.04 101.36,-226.4 226.4,-226.4 125.04,0 226.4,101.36 226.4,226.4 0,125.04 -101.36,226.4 -226.4,226.4 z"
     id="outerring" />
  <path
     class="a" 
     fill="#0f0f0f" 
     d="m 292.86,498.609 c -113.45,0 -205.74,-92.297 -205.74,-205.75 0,-113.453 92.293,-205.75 205.74,-205.75 113.447,0 205.75,92.297 205.75,205.75 0,113.453 -92.297,205.75 -205.75,205.75 z m 0,-393.91 c -103.75,0 -188.17,84.41 -188.17,188.17 0,103.76 84.414,188.17 188.17,188.17 103.756,0 188.17,-84.41 188.17,-188.17 0,-103.76 -84.414,-188.17 -188.17,-188.17 z"
     id="innerring" />
</svg>
