<svg xmlns="http://www.w3.org/2000/svg" viewBox="0 0 297 297" fill-rule="evenodd" stroke-linejoin="round" stroke-miterlimit="2" xmlns:v="https://vecta.io/nano"><g transform="translate(-1126.878 -1501.881)"><circle cx="1307.47" cy="2146.97" r="148.12" fill="url(#A)" transform="translate(-32.466 -496.972)"/><path d="M404.322 0H107.677c-24.813 0-45 20.187-45 45v422c0 24.813 20.187 45 45 45h296.645c24.813 0 45-20.187 45-45V45c0-24.813-20.188-45-45-45zM123.77 88.35a12.04 12.04 0 0 1 12-12h244.473a12.04 12.04 0 0 1 12 12v45.749c.001 6.6-5.399 12-11.999 12H135.77a12.04 12.04 0 0 1-12-12V88.35zm146.257 164.045h-28.053c-8.285 0-15-6.716-15-15v-20.383c0-8.284 6.716-15 15-15h28.053c8.284 0 15 6.716 15 15v20.383c0 8.284-6.716 15-15 15zm15 61.239v20.383c0 8.284-6.716 15-15 15h-28.053c-8.284 0-15-6.716-15-15v-20.383c0-8.285 6.715-15 15-15h28.053c8.284 0 15 6.716 15 15zm-107.22 117.005c0 8.284-6.716 15-15 15h-28.053c-8.284 0-15-6.716-15-15v-20.383c0-8.284 6.716-15 15-15h28.053c8.284 0 15 6.715 15 15v20.383zm0-96.622c0 8.284-6.716 15-15 15h-28.053c-8.284 0-15-6.716-15-15v-20.383c0-8.284 6.716-15 15-15h28.053c8.284 0 15 6.716 15 15v20.383zm0-96.622c0 8.284-6.716 15-15 15h-28.053c-8.284 0-15-6.716-15-15v-20.383c0-8.284 6.716-15 15-15h28.053c8.284 0 15 6.716 15 15v20.383zm214.437 193.244c0 8.284-6.716 15-15 15H241.973c-8.284 0-15-6.716-15-15v-20.383c0-8.285 6.715-15 15-15h135.271c8.284 0 15 6.716 15 15v20.383zm0-96.622c0 8.284-6.716 15-15 15h-28.053c-8.284 0-15-6.716-15-15v-20.383c0-8.284 6.716-15 15-15h28.053c8.284 0 15 6.716 15 15v20.383zm0-96.622c0 8.284-6.716 15-15 15h-28.053c-8.284 0-15-6.716-15-15v-20.383c0-8.284 6.716-15 15-15h28.053c8.284 0 15 6.716 15 15v20.383z" fill="url(#B)" fill-rule="nonzero" transform="matrix(.369 0 0 .355 1180.45 1559.12)"/></g><defs><linearGradient id="A" x1="1217.41" y1="2031.59" x2="1408.121" y2="2252.338" gradientUnits="userSpaceOnUse"><stop offset="0" stop-color="#6610f2"/><stop offset="1" stop-color="#520cc3"/></linearGradient><linearGradient id="B" x1="0" y1="0" x2="1" y2="0" gradientUnits="userSpaceOnUse" gradientTransform="matrix(339.499,459.992,-442.137,353.208,77.6715,27.7324)"><stop offset="0" stop-color="#e0cffc"/><stop offset="1" stop-color="#c2a0f9"/></linearGradient></defs></svg>