<svg xmlns="http://www.w3.org/2000/svg" viewBox="0 0 297 297" fill-rule="evenodd" stroke-linejoin="round" stroke-miterlimit="2" xmlns:v="https://vecta.io/nano"><g transform="translate(-1126.879 -1501.882)"><circle cx="1307.47" cy="2146.97" r="148.12" fill="url(#A)" transform="translate(-32.466 -496.972)"/><g transform="matrix(.462537 0 0 .462537 1166.06 1558.05676)" fill-rule="nonzero"><path d="M340.38 23.224H206.396a32.01 32.01 0 0 0-22.624 9.376L9.372 206.968c-12.496 12.496-12.496 32.752 0 45.264l133.984 133.984c12.496 12.496 32.752 12.496 45.248 0l174.4-174.368c6-6.016 9.376-14.16 9.376-22.656V55.224c0-17.68-14.32-32-32-32zm-56 112c-13.248 0-24-10.752-24-24s10.752-24 24-24 24 10.752 24 24-10.752 24-24 24z" fill="url(#B)"/><path d="M404.38 55.224l-.016 148.944a27.79 27.79 0 0 1-8.16 19.68L218.988 401.064l2.72 2.72c12.496 12.496 32.752 12.496 45.248 0l160.032-160a31.96 31.96 0 0 0 9.392-22.624V87.224c0-17.68-14.32-32-32-32z" fill="url(#B)"/></g></g><defs><linearGradient id="A" x1="1217.41" y1="2031.59" x2="1408.121" y2="2252.338" gradientUnits="userSpaceOnUse"><stop offset="0" stop-color="#6610f2"/><stop offset="1" stop-color="#520cc3"/></linearGradient><linearGradient id="B" x1="97.48" y1="123.854" x2="335.833" y2="329.888" gradientUnits="userSpaceOnUse"><stop offset="0" stop-color="#e0cffc"/><stop offset="1" stop-color="#c2a0f9"/></linearGradient></defs></svg>