<svg xmlns="http://www.w3.org/2000/svg" viewBox="0 0 297 297" fill-rule="evenodd" stroke-linejoin="round" stroke-miterlimit="2" xmlns:v="https://vecta.io/nano"><g transform="translate(-1126.884 -1501.883)"><circle cx="1307.47" cy="2146.97" r="148.12" fill="url(#A)" transform="translate(-32.466 -496.972)"/><path d="M483.898 181.181c-78.088 0-144.817 51.006-170.197 120.945H1621.54c-25.42-69.939-92.23-120.945-170.32-120.945H483.898zm-241.89 242.008c-99.46 0-181.772 82.195-181.772 181.653v967.318c0 99.46 82.312 181.78 181.772 181.78H1693.23c99.46 0 181.18-82.32 181.18-181.78V604.842c0-99.458-81.72-181.653-181.18-181.653H242.008zm724.488 241.063c34.284-.645 62.184 27.249 61.534 61.535v579.563l138.9-138.54c11.48-13.41 28.28-21.13 45.93-21.13 33.18 0 60.48 27.3 60.48 60.48 0 17.65-7.73 34.44-21.14 45.93l-242 242c-23.437 23.3-61.845 23.3-85.279 0l-241.89-242c-11.73-11.39-18.358-27.06-18.358-43.4 0-30.93 23.724-57.13 54.5-60.19 18.297-1.68 36.399 5.07 49.134 18.31l138.78 138.9V725.787c-.627-33.41 25.998-60.849 59.409-61.535z" fill="url(#B)" transform="matrix(.098 0 0 .098 1180.01 1554.98)"/></g><defs><linearGradient id="A" x1="1217.41" y1="2031.59" x2="1408.121" y2="2252.338" gradientUnits="userSpaceOnUse"><stop offset="0" stop-color="#6610f2"/><stop offset="1" stop-color="#520cc3"/></linearGradient><linearGradient id="B" x1="197.25" y1="364.707" x2="1745.13" y2="1680.927" gradientUnits="userSpaceOnUse"><stop offset="0" stop-color="#e0cffc"/><stop offset="1" stop-color="#c2a0f9"/></linearGradient></defs></svg>