<svg xmlns="http://www.w3.org/2000/svg" viewBox="0 0 297 297" fill-rule="evenodd" stroke-linejoin="round" stroke-miterlimit="2" xmlns:v="https://vecta.io/nano"><g transform="translate(-1126.876 -1501.88)"><circle cx="1307.47" cy="2146.97" r="148.12" fill="url(#A)" transform="translate(-32.466 -496.972)"/><g transform="matrix(.354438 0 0 .354438 1183.67991 1558.49878)" fill-rule="nonzero"><path d="M320 0v128h128L320 0z" fill="url(#B)"/><path d="M320 160c-17.632 0-32-14.368-32-32V0H96C78.368 0 64 14.368 64 32v448c0 17.664 14.368 32 32 32h320c17.664 0 32-14.336 32-32V160H320zM192 448h-64v-96h64v96zm96 0h-64V288h64v160zm96 0h-64V224h64v224z" fill="url(#B)"/></g></g><defs><linearGradient id="A" x1="1217.41" y1="2031.59" x2="1408.121" y2="2252.338" gradientUnits="userSpaceOnUse"><stop offset="0" stop-color="#6610f2"/><stop offset="1" stop-color="#520cc3"/></linearGradient><linearGradient id="B" x1="67.734" y1="28.719" x2="422.347" y2="484.65" gradientUnits="userSpaceOnUse"><stop offset="0" stop-color="#e0cffc"/><stop offset="1" stop-color="#c2a0f9"/></linearGradient></defs></svg>