<?xml version="1.0" encoding="UTF-8" standalone="no"?>
<!DOCTYPE svg PUBLIC "-//W3C//DTD SVG 1.1//EN" "http://www.w3.org/Graphics/SVG/1.1/DTD/svg11.dtd">
<svg width="100%" height="100%" viewBox="0 0 297 297" version="1.1" xmlns="http://www.w3.org/2000/svg" xmlns:xlink="http://www.w3.org/1999/xlink" xml:space="preserve" xmlns:serif="http://www.serif.com/" style="fill-rule:evenodd;clip-rule:evenodd;stroke-linejoin:round;stroke-miterlimit:2;">
    <g transform="matrix(1,0,0,1,-2048.31,-2563.49)">
        <g id="Report" transform="matrix(1,0,0,1,921.43,1061.61)">
            <g transform="matrix(1,0,0,1,-32.4656,-496.972)">
                <circle cx="1307.47" cy="2146.97" r="148.12" style="fill:url(#_Linear1);"/>
            </g>
            <g id="Report1" serif:id="Report" transform="matrix(0.940994,0,0,0.940994,82.2294,113.585)">
                <g transform="matrix(0.405836,0,0,0.405836,1163.67,1528.86)">
                    <path d="M320,0L320,128L448,128L320,0Z" style="fill:url(#_Linear2);fill-rule:nonzero;"/>
                </g>
                <g transform="matrix(0.405836,0,0,0.405836,1163.67,1528.86)">
                    <path d="M320,160C302.368,160 288,145.632 288,128L288,0L96,0C78.368,0 64,14.368 64,32L64,480C64,497.664 78.368,512 96,512L416,512C433.664,512 448,497.664 448,480L448,160L320,160ZM192,448L128,448L128,352L192,352L192,448ZM288,448L224,448L224,288L288,288L288,448ZM384,448L320,448L320,224L384,224L384,448Z" style="fill:url(#_Linear3);fill-rule:nonzero;"/>
                </g>
            </g>
        </g>
    </g>
    <defs>
        <linearGradient id="_Linear1" x1="0" y1="0" x2="1" y2="0" gradientUnits="userSpaceOnUse" gradientTransform="matrix(190.711,220.748,-220.748,190.711,1217.41,2031.59)"><stop offset="0" style="stop-color:rgb(184,184,184);stop-opacity:1"/><stop offset="1" style="stop-color:rgb(42,42,42);stop-opacity:1"/></linearGradient>
        <linearGradient id="_Linear2" x1="0" y1="0" x2="1" y2="0" gradientUnits="userSpaceOnUse" gradientTransform="matrix(354.613,455.931,-455.931,354.613,67.7341,28.7193)"><stop offset="0" style="stop-color:rgb(255,229,51);stop-opacity:1"/><stop offset="1" style="stop-color:rgb(229,199,0);stop-opacity:1"/></linearGradient>
        <linearGradient id="_Linear3" x1="0" y1="0" x2="1" y2="0" gradientUnits="userSpaceOnUse" gradientTransform="matrix(354.613,455.931,-455.931,354.613,67.7341,28.7193)"><stop offset="0" style="stop-color:rgb(255,229,51);stop-opacity:1"/><stop offset="1" style="stop-color:rgb(229,199,0);stop-opacity:1"/></linearGradient>
    </defs>
</svg>
