<?xml version="1.0" encoding="UTF-8" standalone="no"?>
<!DOCTYPE svg PUBLIC "-//W3C//DTD SVG 1.1//EN" "http://www.w3.org/Graphics/SVG/1.1/DTD/svg11.dtd">
<svg width="100%" height="100%" viewBox="0 0 323 323" version="1.1" xmlns="http://www.w3.org/2000/svg" xmlns:xlink="http://www.w3.org/1999/xlink" xml:space="preserve" xmlns:serif="http://www.serif.com/" style="fill-rule:evenodd;clip-rule:evenodd;stroke-linejoin:round;stroke-miterlimit:2;">
    <g transform="matrix(1,0,0,1,-2036.95,-1049.43)">
        <g id="YoFi" transform="matrix(1,0,0,1,923.299,-439.221)">
            <g transform="matrix(1.20896,0,0,1.20896,-303.67,-345.49)">
                <circle cx="1305.81" cy="1650.59" r="118.177" style="fill:url(#_Linear1);"/>
            </g>
            <path id="Inner-Circle" serif:id="Inner Circle" d="M1275,1528.23C1342.21,1528.23 1396.77,1582.79 1396.77,1650C1396.77,1717.21 1342.21,1771.77 1275,1771.77C1207.79,1771.77 1153.23,1717.21 1153.23,1650C1153.23,1582.79 1207.79,1528.23 1275,1528.23ZM1275,1539.47C1336,1539.47 1385.53,1589 1385.53,1650C1385.53,1711 1336,1760.53 1275,1760.53C1214,1760.53 1164.47,1711 1164.47,1650C1164.47,1589 1214,1539.47 1275,1539.47Z" style="fill:url(#_Linear2);"/>
            <path id="Outter-Circle" serif:id="Outter Circle" d="M1275,1488.65C1364.05,1488.65 1436.35,1560.95 1436.35,1650C1436.35,1739.05 1364.05,1811.35 1275,1811.35C1185.95,1811.35 1113.65,1739.05 1113.65,1650C1113.65,1560.95 1185.95,1488.65 1275,1488.65ZM1275,1510.77C1351.85,1510.77 1414.24,1573.15 1414.24,1650C1414.24,1726.85 1351.85,1789.24 1275,1789.24C1198.15,1789.24 1135.77,1726.85 1135.77,1650C1135.77,1573.15 1198.15,1510.77 1275,1510.77Z" style="fill:url(#_Linear3);"/>
            <g transform="matrix(1.09739,0,0,1.15469,-126.175,-244.75)">
                <g transform="matrix(2.81434,0,0,2.54029,-653.457,-1880.56)">
                    <path d="M682.01,1394.96C676.801,1385.82 672.461,1378.91 668.989,1374.25C665.517,1369.58 662.94,1367.18 661.258,1367.04C661.909,1364.79 662.723,1363.09 663.699,1361.94C664.676,1360.78 665.802,1360.21 667.077,1360.21C667.782,1360.21 668.419,1360.4 668.989,1360.78C669.559,1361.16 670.169,1361.82 670.82,1362.77C671.091,1363.15 671.837,1364.41 673.058,1366.56C677.453,1374.37 681.874,1381.72 686.323,1388.61C691.83,1380.66 695.682,1374.73 697.879,1370.81C700.076,1366.89 701.175,1364.07 701.175,1362.36C701.175,1362.12 701.155,1361.9 701.114,1361.69C701.073,1361.49 701.012,1361.31 700.931,1361.14C701.853,1360.9 702.728,1360.72 703.555,1360.61C704.383,1360.51 705.149,1360.45 705.854,1360.45C706.912,1360.45 707.733,1360.7 708.316,1361.2C708.899,1361.71 709.191,1362.43 709.191,1363.38C709.191,1364.79 705.895,1370.23 699.303,1379.7C695.261,1385.5 691.992,1390.25 689.497,1393.94C689.497,1394.59 689.483,1395.55 689.456,1396.81C689.429,1398.07 689.415,1398.99 689.415,1399.55C689.415,1404.27 689.605,1408.05 689.985,1410.89C690.365,1413.72 690.962,1415.91 691.775,1417.46C690.473,1418.14 689.266,1418.64 688.154,1418.96C687.042,1419.29 685.97,1419.45 684.94,1419.45C683.556,1419.45 682.593,1419.08 682.051,1418.33C681.508,1417.59 681.237,1416.26 681.237,1414.37C681.237,1413.99 681.338,1411.66 681.542,1407.39C681.745,1403.12 681.901,1398.97 682.01,1394.96Z" style="fill:url(#_Linear4);fill-rule:nonzero;"/>
                </g>
                <g transform="matrix(6.76362,0,0,3.10608,-3729.21,-2645.8)">
                    <path d="M732.207,1387.34C732.185,1387.1 732.168,1386.84 732.157,1386.57C732.146,1386.29 732.141,1385.95 732.141,1385.53C732.141,1384.07 732.502,1382.99 733.224,1382.31C733.947,1381.64 735.107,1381.3 736.705,1381.3C737.449,1381.3 738.696,1381.38 740.447,1381.56C742.199,1381.73 743.577,1381.82 744.584,1381.82C745.153,1381.82 745.706,1381.77 746.242,1381.67C746.779,1381.58 747.277,1381.43 747.736,1381.23C747.758,1381.56 747.785,1381.93 747.818,1382.35C747.851,1382.76 747.867,1382.99 747.867,1383.04C747.867,1384.5 747.501,1385.58 746.768,1386.25C746.034,1386.93 744.88,1387.27 743.304,1387.27C742.428,1387.27 741.164,1387.17 739.512,1386.98C737.859,1386.78 736.628,1386.68 735.818,1386.68C735.14,1386.68 734.505,1386.74 733.914,1386.85C733.323,1386.95 732.754,1387.12 732.207,1387.34Z" style="fill:url(#_Linear5);fill-rule:nonzero;"/>
                </g>
                <g transform="matrix(6.76362,0,0,3.10608,-3729.21,-2617.8)">
                    <path d="M732.207,1387.34C732.185,1387.1 732.168,1386.84 732.157,1386.57C732.146,1386.29 732.141,1385.95 732.141,1385.53C732.141,1384.07 732.502,1382.99 733.224,1382.31C733.947,1381.64 735.107,1381.3 736.705,1381.3C737.449,1381.3 738.696,1381.38 740.447,1381.56C742.199,1381.73 743.577,1381.82 744.584,1381.82C745.153,1381.82 745.706,1381.77 746.242,1381.67C746.779,1381.58 747.277,1381.43 747.736,1381.23C747.758,1381.56 747.785,1381.93 747.818,1382.35C747.851,1382.76 747.867,1382.99 747.867,1383.04C747.867,1384.5 747.501,1385.58 746.768,1386.25C746.034,1386.93 744.88,1387.27 743.304,1387.27C742.428,1387.27 741.164,1387.17 739.512,1386.98C737.859,1386.78 736.628,1386.68 735.818,1386.68C735.14,1386.68 734.505,1386.74 733.914,1386.85C733.323,1386.95 732.754,1387.12 732.207,1387.34Z" style="fill:url(#_Linear6);fill-rule:nonzero;"/>
                </g>
            </g>
        </g>
    </g>
    <defs>
        <linearGradient id="_Linear1" x1="0" y1="0" x2="1" y2="0" gradientUnits="userSpaceOnUse" gradientTransform="matrix(141.683,177.022,-177.022,141.683,1236.79,1560.14)"><stop offset="0" style="stop-color:rgb(255,229,51);stop-opacity:1"/><stop offset="1" style="stop-color:rgb(229,199,0);stop-opacity:1"/></linearGradient>
        <linearGradient id="_Linear2" x1="0" y1="0" x2="1" y2="0" gradientUnits="userSpaceOnUse" gradientTransform="matrix(156.785,181.479,-181.479,156.785,1200.96,1555.15)"><stop offset="0" style="stop-color:rgb(184,184,184);stop-opacity:1"/><stop offset="1" style="stop-color:rgb(42,42,42);stop-opacity:1"/></linearGradient>
        <linearGradient id="_Linear3" x1="0" y1="0" x2="1" y2="0" gradientUnits="userSpaceOnUse" gradientTransform="matrix(205.389,241.841,-241.841,205.389,1175.09,1524.97)"><stop offset="0" style="stop-color:rgb(184,184,184);stop-opacity:1"/><stop offset="1" style="stop-color:rgb(42,42,42);stop-opacity:1"/></linearGradient>
        <linearGradient id="_Linear4" x1="0" y1="0" x2="1" y2="0" gradientUnits="userSpaceOnUse" gradientTransform="matrix(40.3584,50.9123,-48.3539,42.4937,663.55,1362.74)"><stop offset="0" style="stop-color:rgb(184,184,184);stop-opacity:1"/><stop offset="1" style="stop-color:rgb(42,42,42);stop-opacity:1"/></linearGradient>
        <linearGradient id="_Linear5" x1="0" y1="0" x2="1" y2="0" gradientUnits="userSpaceOnUse" gradientTransform="matrix(16.7931,41.6382,-20.1201,34.7531,730.854,1360.87)"><stop offset="0" style="stop-color:rgb(184,184,184);stop-opacity:1"/><stop offset="1" style="stop-color:rgb(42,42,42);stop-opacity:1"/></linearGradient>
        <linearGradient id="_Linear6" x1="0" y1="0" x2="1" y2="0" gradientUnits="userSpaceOnUse" gradientTransform="matrix(16.7931,41.6382,-20.1201,34.7531,730.854,1351.86)"><stop offset="0" style="stop-color:rgb(184,184,184);stop-opacity:1"/><stop offset="1" style="stop-color:rgb(42,42,42);stop-opacity:1"/></linearGradient>
    </defs>
</svg>
